<?xml version="1.0" encoding="UTF-8" standalone="no"?>
<svg
   version="1.1"
   id="Layer_1"
   x="0px"
   y="0px"
   width="100%"
   viewBox="0 0 1024 1024"
   enable-background="new 0 0 1024 1024"
   xml:space="preserve"
   sodipodi:docname="logo.svg"
   inkscape:version="1.3.2 (091e20ef0f, 2023-11-25)"
   xmlns:inkscape="http://www.inkscape.org/namespaces/inkscape"
   xmlns:sodipodi="http://sodipodi.sourceforge.net/DTD/sodipodi-0.dtd"
   xmlns="http://www.w3.org/2000/svg"
   xmlns:svg="http://www.w3.org/2000/svg"><defs
   id="defs4" /><sodipodi:namedview
   id="namedview4"
   pagecolor="#ffffff"
   bordercolor="#000000"
   borderopacity="0.25"
   inkscape:showpageshadow="2"
   inkscape:pageopacity="0.0"
   inkscape:pagecheckerboard="0"
   inkscape:deskcolor="#d1d1d1"
   inkscape:zoom="0.7890625"
   inkscape:cx="579.16832"
   inkscape:cy="456.87129"
   inkscape:window-width="1920"
   inkscape:window-height="1037"
   inkscape:window-x="0"
   inkscape:window-y="401"
   inkscape:window-maximized="1"
   inkscape:current-layer="Layer_1" />
<path
   fill="#000000"
   opacity="1.000000"
   stroke="none"
   d=" M644.215088,629.196472   C614.975525,660.037781 579.659668,678.436829 537.916809,684.390564   C534.019104,684.946472 532.041992,686.515381 532.268250,690.845764   C532.580688,696.827332 532.415710,702.840149 532.294617,708.836365   C532.143372,716.321289 530.360474,718.588501 522.984192,719.702820   C515.737854,720.797424 508.435303,720.851685 501.148926,719.543213   C497.306976,718.853394 495.505646,716.576965 494.650726,712.966919   C492.816772,705.222839 493.877258,697.373962 493.658203,689.578064   C493.562042,686.156677 492.605042,684.825439 488.906464,684.224365   C424.224701,673.712463 377.232361,639.245728 349.068878,579.860596   C341.916504,564.779175 337.442352,548.747620 335.659210,532.078247   C335.248871,528.242371 333.553741,526.423584 329.631439,526.383362   C323.313049,526.318604 317.008850,526.345703 310.686554,525.533813   C305.535706,524.872375 303.055695,522.015198 302.832794,517.463013   C302.450226,509.650696 302.508972,501.800201 302.776886,493.979248   C302.925110,489.651947 305.448822,487.179138 310.040649,486.568085   C316.515930,485.706421 322.998322,485.655823 329.488373,485.699249   C333.278168,485.724579 335.132446,484.383698 335.757019,480.361755   C340.985535,446.692139 354.308777,416.575592 376.547150,390.698364   C404.259949,358.450897 438.961761,338.282898 481.186707,331.569153   C482.004486,331.439148 482.796021,331.151825 483.610352,330.991211   C493.648529,329.011047 493.598419,329.013245 493.672363,318.532013   C493.712219,312.884918 493.441040,307.243408 494.536987,301.607819   C495.738892,295.427460 497.662323,293.094574 503.943939,292.778015   C510.093170,292.468140 516.282288,292.459076 522.431335,292.767975   C529.217285,293.108887 531.998291,296.507141 532.309265,304.044495   C532.597412,311.028778 533.028381,318.016418 532.998962,325.000916   C532.982544,328.914215 534.740173,330.210205 538.286194,330.629028   C611.077087,339.226837 672.208069,395.040344 687.268494,466.637604   C688.291321,471.500122 689.082397,476.418030 689.790894,481.337585   C690.235962,484.427612 691.514954,485.813538 694.884766,486.057770   C700.207336,486.443573 705.520142,486.582336 710.846558,486.712097   C719.789673,486.929932 723.256409,490.451263 723.330688,499.234680   C723.378540,504.899475 723.435120,510.566986 723.315613,516.229675   C723.171509,523.056030 719.881836,526.198853 713.093506,526.418213   C707.104858,526.611633 701.121643,527.017944 695.132324,527.126221   C691.962158,527.183533 690.561707,528.113464 690.142151,531.652466   C686.409424,563.140991 674.561584,591.351257 655.121765,616.364380   C651.752686,620.699463 648.023621,624.754761 644.215088,629.196472  M387.512787,569.986816   C408.905060,609.277832 440.299713,635.369751 485.004211,643.946716   C492.795258,645.441406 493.098511,645.286377 493.670837,637.367493   C494.139404,630.884277 497.188232,627.631165 503.664032,627.406555   C509.144775,627.216553 514.642761,627.585327 520.133606,627.611206   C529.163025,627.653687 532.034241,630.363586 532.338013,639.281067   C532.524231,644.747437 533.261841,645.556641 538.489990,644.503174   C552.891846,641.601257 567.025818,637.605286 579.924805,630.470764   C609.116455,614.324707 629.572632,590.154907 642.983337,559.866150   C647.568909,549.509399 650.223450,538.592041 651.131653,527.136169   C646.870300,525.744080 642.857605,526.635498 638.930176,526.361206   C633.881714,526.008667 630.130127,523.255432 629.787415,518.785156   C629.203491,511.169067 628.219238,503.535095 629.385742,495.869965   C630.460083,488.810211 632.025146,487.328613 639.323608,486.615875   C641.806213,486.373444 644.270813,485.884430 646.756592,485.752014   C649.808289,485.589447 650.484070,484.466125 650.103699,481.290894   C647.880676,462.735138 641.173462,445.904022 631.061157,430.356873   C612.906677,402.445129 588.660583,382.338837 556.326538,372.898743   C548.743896,370.684998 540.992737,368.929199 533.031311,369.229248   C532.102051,371.397522 532.422974,373.419525 532.335999,375.397583   C531.995850,383.138062 528.817505,386.272461 521.239258,386.382202   C517.410461,386.437622 513.568176,386.366486 509.756805,386.667084   C498.404480,387.562408 492.952271,384.353668 493.646606,373.024719   C493.849487,369.714813 492.013397,368.920990 489.272156,369.396820   C484.534393,370.219208 479.750061,370.913910 475.110321,372.136810   C447.513916,379.410339 424.647156,394.346863 406.278656,415.978668   C390.490906,434.571320 379.686890,455.726929 375.740601,480.070862   C375.104889,483.992737 376.571930,485.763306 380.495880,485.668884   C381.993073,485.632904 383.501038,485.633362 384.990692,485.766846   C391.979095,486.392975 394.139160,488.434113 395.591949,495.364990   C396.985535,502.013428 396.039185,508.597839 395.379456,515.219849   C394.648376,522.557922 391.298553,525.893005 383.945679,526.296265   C381.181793,526.447754 378.290680,525.794556 375.252014,527.639954   C376.552765,542.236450 380.641022,556.110474 387.512787,569.986816  z"
   id="path1" />
<path
   fill="#000000"
   opacity="1.000000"
   stroke="none"
   d=" M220.366135,221.338379   C235.677994,207.380981 253.863586,201.559174 273.726166,199.531464   C283.045166,198.580109 292.341797,198.672256 301.656189,198.686920   C308.386261,198.697525 311.190277,201.339905 311.281006,208.008865   C311.435150,219.337143 311.412964,230.670288 311.276215,241.999115   C311.193878,248.818604 308.584595,251.253677 301.784515,251.360046   C294.633850,251.471909 287.509460,251.599564 280.352966,252.198914   C262.822876,253.667068 251.308243,263.172852 247.485153,280.452759   C246.084991,286.781281 245.311996,293.190826 245.325058,299.732239   C245.413956,344.220978 245.638947,388.712311 245.252014,433.197845   C245.082809,452.650024 240.363266,471.083984 228.567871,487.140808   C222.980759,494.746368 216.209274,501.066345 208.310715,506.218903   C206.001587,507.725281 203.282730,508.776520 201.518234,511.718628   C204.659073,513.554810 207.753876,515.106567 210.574463,517.055176   C228.061340,529.136108 238.258560,545.991943 242.235062,566.645447   C244.658310,579.231445 245.422729,591.990601 245.381699,604.832764   C245.253433,644.989014 245.141785,685.147400 245.451660,725.301697   C245.555664,738.777954 249.278366,751.247314 259.842804,760.773254   C268.386780,768.477295 278.958801,770.375671 289.781860,771.608459   C294.398163,772.134277 299.057281,772.277893 303.678528,772.768738   C309.117737,773.346375 311.298981,775.771545 311.322601,781.247559   C311.373596,793.077698 311.310211,804.908325 311.345917,816.738586   C311.358948,821.061890 309.453522,824.126160 305.077881,824.237427   C285.750854,824.729248 266.396545,824.712036 248.026810,817.454712   C214.353943,804.151550 196.584625,778.354004 190.681335,743.473022   C188.843033,732.611023 188.718781,721.636108 188.730530,710.643066   C188.775070,668.986938 188.773834,627.330322 188.625168,585.674500   C188.593658,576.844482 187.014267,568.175964 183.941818,559.833801   C177.046906,541.113159 166.129745,538.425232 152.633179,537.455261   C143.366211,536.789185 141.662308,535.405701 141.654694,526.122620   C141.646225,515.791870 141.624573,505.460999 141.662567,495.130341   C141.686523,488.618378 143.016907,487.347717 149.267090,486.539246   C156.821136,485.562103 164.520889,485.158478 171.337662,481.012573   C177.118912,477.496429 181.280685,472.721222 183.633774,466.403687   C186.911636,457.603363 188.640137,448.469971 188.656616,439.098877   C188.738968,392.277344 188.579727,345.454956 188.803146,298.634277   C188.885483,281.379425 191.713303,264.549866 199.260452,248.764267   C204.302719,238.217880 211.573898,229.426147 220.366135,221.338379  z"
   id="path2" />
<path
   fill="#000000"
   opacity="1.000000"
   stroke="none"
   d=" M781.039795,380.000000   C781.265442,359.673706 781.118164,339.845886 781.356201,320.017303   C781.493408,308.591705 781.224976,297.051819 779.578735,285.651947   C777.197510,269.161774 765.056030,257.331482 746.455627,253.393555   C738.937378,251.801834 731.338562,251.246231 723.655273,251.257629   C716.135315,251.268784 713.940979,248.898956 713.907959,241.289444   C713.861023,230.456802 713.835510,219.623825 713.869446,208.791183   C713.895447,200.472336 715.796265,198.722321 724.241760,198.635147   C743.789124,198.433395 763.305603,199.015091 781.594971,206.861389   C813.178833,220.411087 831.239441,244.437592 835.343506,278.633881   C838.509094,305.011108 836.866699,331.528137 837.126343,357.984650   C837.391174,384.980316 837.234131,411.979889 837.411072,438.976776   C837.473694,448.522095 839.409424,457.774811 843.031738,466.635742   C848.071899,478.964935 857.780212,484.560974 870.585083,485.618805   C872.075378,485.741913 873.584167,485.622833 875.083435,485.656250   C881.008545,485.788422 883.364929,487.649078 883.830017,493.552246   C884.260925,499.021301 884.084473,504.540527 884.118286,510.037994   C884.156189,516.204041 884.250610,522.373535 884.096924,528.536011   C883.947815,534.511963 881.439819,536.814453 875.590393,537.416687   C870.807922,537.909058 865.999878,538.506653 861.321899,539.576660   C854.146851,541.217957 848.767029,545.490906 845.145142,551.944641   C839.443665,562.103821 837.550781,573.306091 837.464172,584.630371   C837.132751,627.958862 837.393372,671.291687 837.103455,714.620728   C836.981934,732.781494 835.909851,750.941895 828.129822,767.843994   C814.673584,797.078003 792.559631,815.557251 760.556091,821.297546   C747.444763,823.649292 734.203064,824.596802 720.846313,823.540649   C716.510559,823.197754 714.272827,821.111267 714.193054,817.048035   C713.941040,804.221375 713.806824,791.389893 713.869263,778.561401   C713.885132,775.300598 715.779907,773.259705 719.352051,772.488342   C726.911133,770.856079 734.605957,772.118469 742.209656,770.759033   C764.121094,766.841492 777.661987,754.516296 779.665405,733.519958   C782.218201,706.765320 780.604614,679.927002 781.030823,653.128906   C781.393799,630.306702 780.242554,607.464600 781.675720,584.658813   C783.116028,561.739502 789.462769,540.809875 806.971191,524.609985   C811.400879,520.511414 816.333496,517.145386 821.551025,514.154602   C822.945984,513.354980 824.743225,513.019775 825.365479,511.132568   C825.097900,508.938477 823.120300,508.404358 821.622803,507.510834   C798.208984,493.540497 785.691467,472.775421 782.547791,445.873016   C780.004639,424.108887 781.528259,402.289764 781.039795,380.000000  z"
   id="path3" />
<path
   fill="#000000"
   opacity="1"
   stroke="none"
   d="m 455.18123,528.58997 c -15.31564,-37.89952 8.8617,-80.26392 49.05407,-85.33389 34.69946,-4.37707 60.98416,19.191 67.78814,47.37674 8.36921,34.66964 -13.92248,68.42204 -49.14381,74.64022 -27.55841,4.86539 -55.05503,-9.93907 -67.6984,-36.68307 z"
   id="path4"
   style="stroke-width:0.893821" />
</svg>
